<?xml version="1.0" standalone="no"?>
<!DOCTYPE svg PUBLIC "-//W3C//DTD SVG 20010904//EN"
 "http://www.w3.org/TR/2001/REC-SVG-20010904/DTD/svg10.dtd">
<svg version="1.0" xmlns="http://www.w3.org/2000/svg"
 width="219.000000pt" height="701.000000pt" viewBox="0 0 219.000000 701.000000"
 preserveAspectRatio="xMidYMid meet">

<g transform="translate(0.000000,701.000000) scale(0.100000,-0.100000)"
fill="#3bff83" stroke="none">
<path d="M107 6927 c-17 -11 -17 -78 -14 -1057 l3 -1045 22 -84 c12 -47 44
-150 71 -230 26 -80 158 -507 291 -948 l244 -803 98 0 98 0 0 -728 c0 -613 2
-731 14 -748 13 -17 28 -19 176 -19 148 0 163 2 176 19 12 17 14 135 14 748
l0 728 108 0 108 0 268 912 c148 502 279 945 292 984 54 163 54 165 54 1255 0
987 0 1009 -19 1019 -11 5 -85 10 -169 10 -130 0 -151 -2 -165 -18 -15 -16
-16 -114 -19 -1017 -3 -998 -4 -1000 -26 -1080 -40 -144 -94 -239 -191 -335
-130 -129 -251 -180 -431 -180 -180 0 -301 51 -431 180 -97 96 -151 191 -191
335 -22 80 -23 82 -26 1080 -3 903 -4 1001 -19 1017 -14 16 -35 18 -168 18
-106 0 -156 -4 -168 -13z"/>
<path d="M750 435 l0 -355 360 0 360 0 0 355 0 355 -360 0 -360 0 0 -355z"/>
</g>
</svg>
