<?xml version="1.0" standalone="no"?>
<!DOCTYPE svg PUBLIC "-//W3C//DTD SVG 20010904//EN"
 "http://www.w3.org/TR/2001/REC-SVG-20010904/DTD/svg10.dtd">
<svg version="1.0" xmlns="http://www.w3.org/2000/svg"
 width="598.000000pt" height="342.000000pt" viewBox="0 0 598.000000 342.000000"
 preserveAspectRatio="xMidYMid meet">

<g transform="translate(0.000000,342.000000) scale(0.100000,-0.100000)"
fill="#ffffff" stroke="none">
<path d="M1815 3306 c-127 -32 -238 -128 -291 -252 l-29 -69 -3 -847 -3 -846
28 -22 c27 -21 33 -22 298 -18 305 5 332 10 440 83 73 50 136 139 165 232 26
85 36 269 21 378 -21 147 -102 272 -216 331 l-53 28 47 28 c132 75 189 233
178 488 -9 191 -46 290 -146 384 -108 100 -280 141 -436 102z m225 -167 c58
-17 123 -78 151 -141 22 -50 24 -65 24 -233 0 -168 -2 -183 -24 -233 -14 -30
-42 -69 -67 -91 -65 -57 -128 -71 -313 -71 l-152 0 3 283 c3 265 5 285 26 339
35 86 96 136 197 162 28 7 107 -1 155 -15z m73 -962 c72 -36 119 -95 142 -181
26 -96 18 -341 -13 -411 -64 -140 -161 -178 -437 -173 l-140 3 -3 398 -2 399
197 -4 c194 -3 199 -4 256 -31z"/>
<path d="M5220 3289 c-157 -31 -300 -174 -345 -346 -23 -86 -22 -1251 0 -1338
47 -178 192 -315 366 -345 35 -6 143 -10 239 -8 l175 3 3 76 3 77 -193 5
c-149 3 -204 8 -241 22 -66 24 -139 98 -168 172 -22 55 -24 74 -27 330 l-3
273 278 2 278 3 3 78 3 77 -281 0 -281 0 3 258 c3 238 5 261 26 313 30 76 81
132 150 166 56 27 61 28 255 31 l198 4 -3 76 -3 77 -195 2 c-107 0 -215 -3
-240 -8z"/>
<path d="M2684 3277 c-3 -8 -4 -232 -2 -498 l3 -484 51 -155 c27 -85 93 -296
145 -467 l94 -313 48 0 47 0 0 -345 0 -345 85 0 85 0 0 345 0 345 53 0 52 0
129 438 c71 240 135 465 143 500 10 49 13 163 11 525 l-3 462 -82 3 c-79 3
-83 2 -88 -20 -3 -13 -6 -234 -8 -493 -2 -456 -3 -471 -23 -516 -53 -115 -150
-179 -269 -179 -119 0 -215 63 -268 178 -21 46 -22 60 -27 537 l-5 490 -83 3
c-63 2 -84 0 -88 -11z"/>
<path d="M3804 3276 c-3 -7 -4 -42 -2 -77 l3 -64 187 -3 188 -2 2 -933 3 -932
83 -3 82 -3 0 935 0 936 188 2 187 3 3 78 3 77 -461 0 c-378 0 -462 -2 -466
-14z"/>
<path d="M476 2429 c-53 -42 -56 -59 -56 -309 l0 -230 25 0 25 0 0 100 0 100
80 0 79 0 3 -97 c3 -94 4 -98 26 -101 l23 -4 -3 247 -3 247 -37 34 c-32 29
-45 34 -87 34 -34 0 -56 -6 -75 -21z m133 -55 c18 -23 21 -41 21 -130 l0 -104
-80 0 -80 0 0 104 c0 89 3 107 21 130 16 20 29 26 59 26 30 0 43 -6 59 -26z"/>
<path d="M842 2436 c-13 -7 -32 -26 -43 -42 -17 -27 -19 -49 -19 -267 l0 -238
23 3 c21 3 22 8 25 111 l3 108 40 -3 41 -3 42 -105 c38 -95 45 -105 70 -108
33 -4 33 -6 -24 131 l-39 92 24 20 c34 28 55 85 55 150 0 106 -46 165 -129
165 -25 -1 -56 -6 -69 -14z m125 -63 c13 -19 18 -47 18 -94 0 -58 -4 -71 -24
-93 -20 -22 -33 -26 -78 -26 l-53 0 0 94 c0 79 3 97 21 120 30 38 91 37 116
-1z"/>
<path d="M1083 2435 c-8 -24 6 -33 57 -37 l45 -3 3 -253 2 -253 23 3 22 3 3
253 2 252 51 0 c47 0 50 2 47 23 -3 21 -7 22 -126 25 -105 2 -123 0 -129 -13z"/>
<path d="M3640 1075 c0 -11 11 -15 40 -15 l40 0 0 -195 c0 -165 2 -195 15
-195 12 0 15 31 17 193 l3 192 38 3 c24 2 37 8 37 18 0 11 -19 14 -95 14 -78
0 -95 -3 -95 -15z"/>
<path d="M4290 880 c0 -203 1 -210 20 -210 19 0 20 7 20 123 0 133 5 147 50
147 51 0 60 -24 60 -153 0 -97 3 -117 15 -117 22 0 22 246 0 277 -19 27 -75
39 -104 24 -20 -11 -21 -10 -21 54 0 58 -2 65 -20 65 -19 0 -20 -7 -20 -210z"/>
<path d="M5030 880 c0 -180 2 -210 15 -210 13 0 15 30 15 210 0 180 -2 210
-15 210 -13 0 -15 -30 -15 -210z"/>
<path d="M3859 951 c-28 -29 -29 -32 -29 -131 0 -94 2 -103 25 -125 51 -52
155 -18 155 50 0 35 -26 32 -38 -5 -20 -55 -94 -49 -107 10 -9 41 0 50 51 50
60 0 94 32 94 89 0 32 -6 44 -31 65 -41 35 -83 34 -120 -3z m105 -33 c21 -30
20 -44 -4 -68 -13 -13 -33 -20 -60 -20 -39 0 -40 1 -40 33 0 45 25 77 60 77
18 0 34 -8 44 -22z"/>
<path d="M4093 956 c-26 -23 -28 -31 -32 -110 -5 -139 14 -176 93 -176 36 0
48 5 65 26 23 29 28 74 9 74 -7 0 -20 -15 -28 -33 -10 -22 -23 -33 -41 -35
-47 -5 -59 19 -59 122 0 101 7 116 52 116 22 0 33 -8 46 -30 20 -35 42 -39 42
-7 -1 26 -17 49 -47 65 -34 19 -69 14 -100 -12z"/>
<path d="M4569 951 c-29 -29 -29 -30 -29 -155 0 -105 2 -126 15 -126 12 0 15
19 15 108 0 125 11 156 56 160 50 5 59 -16 63 -150 2 -92 6 -118 17 -118 11 0
14 25 14 126 0 125 0 126 -29 155 -40 39 -82 39 -122 0z"/>
<path d="M4809 951 c-28 -29 -29 -32 -29 -131 0 -94 2 -103 25 -125 33 -34
102 -35 133 -2 20 21 22 34 22 124 0 118 -3 129 -41 148 -43 23 -77 18 -110
-14z m105 -33 c22 -31 22 -165 0 -196 -22 -32 -73 -27 -92 8 -17 33 -12 171 7
193 20 25 67 21 85 -5z"/>
<path d="M5175 968 c-40 -21 -45 -39 -45 -148 0 -98 2 -108 23 -128 34 -32
100 -30 132 3 23 22 25 31 25 125 0 99 -1 102 -29 131 -31 31 -70 37 -106 17z
m93 -58 c8 -16 12 -53 10 -103 -3 -64 -7 -81 -23 -93 -28 -21 -62 -17 -79 8
-23 33 -22 175 1 200 24 27 74 20 91 -12z"/>
<path d="M5408 965 c-37 -21 -51 -72 -46 -162 4 -59 10 -78 28 -98 26 -27 86
-35 108 -13 9 9 12 2 12 -34 0 -52 -18 -78 -54 -78 -26 0 -56 29 -56 54 0 11
-6 16 -17 14 -24 -5 -18 -45 10 -75 27 -30 94 -31 128 -4 24 19 24 23 24 190
0 159 -1 172 -21 191 -27 27 -82 34 -116 15z m90 -37 c19 -19 16 -177 -5 -200
-20 -22 -42 -23 -71 -2 -20 14 -22 24 -22 99 0 63 4 88 16 99 18 19 65 21 82
4z"/>
<path d="M5610 850 c0 -115 1 -122 25 -145 26 -27 72 -33 106 -15 17 10 19 7
19 -27 0 -55 -24 -85 -63 -81 -25 2 -35 10 -46 36 -17 38 -41 42 -41 7 0 -70
115 -104 159 -49 20 25 21 40 21 210 0 152 -2 184 -14 184 -11 0 -15 -24 -18
-116 -3 -101 -6 -117 -22 -130 -11 -8 -27 -14 -36 -14 -9 0 -25 6 -36 14 -16
13 -19 29 -22 130 -3 92 -7 116 -18 116 -11 0 -14 -23 -14 -120z"/>
<path d="M2990 285 l0 -165 165 0 165 0 0 165 0 165 -165 0 -165 0 0 -165z"/>
</g>
</svg>
